<svg width="420" height="104" viewBox="0 0 420 104" fill="none" xmlns="http://www.w3.org/2000/svg">
<g opacity="0.5">
<g style="mix-blend-mode:overlay">
<path d="M247.855 6.88195L239.579 13.7814L229.008 11.9992L235.837 20.263L234 30.8799L242.276 23.9804L252.847 25.7626L246.018 17.4988L247.855 6.88195Z" fill="#1E1E1E"/>
</g>
<g style="mix-blend-mode:color-burn">
<path d="M411.153 37.1324L401.017 40.7852L391.692 35.4949L395.283 45.5961L389.926 54.9443L400.062 51.2914L409.386 56.5817L405.795 46.4806L411.153 37.1324Z" fill="#1E1E1E"/>
</g>
<g style="mix-blend-mode:overlay">
<path d="M152.775 37.9014L153.537 33.6595L157.235 31.4875L153.017 30.7112L150.851 26.9857L150.089 31.2276L146.391 33.3995L150.608 34.1759L152.775 37.9014Z" fill="#1E1E1E"/>
</g>
<g style="mix-blend-mode:overlay">
<path d="M145.668 40.7537L141.421 41.4886L138.116 38.7569L138.829 42.9854L136.069 46.2958L140.316 45.5609L143.621 48.2925L142.908 44.064L145.668 40.7537Z" fill="#1E1E1E"/>
</g>
<g style="mix-blend-mode:color-burn">
<path d="M360.398 87.5248L358.255 83.7855L359.691 79.7451L355.962 81.8612L351.907 80.4001L354.05 84.1393L352.614 88.1798L356.344 86.0637L360.398 87.5248Z" fill="#1E1E1E"/>
</g>
<g style="mix-blend-mode:color-burn">
<path d="M349.358 89.5909L347.191 93.3164L342.973 94.0928L346.671 96.2647L347.433 100.507L349.6 96.7811L353.817 96.0048L350.119 93.8328L349.358 89.5909Z" fill="#1E1E1E"/>
</g>
<g style="mix-blend-mode:overlay">
<path d="M12.3513 53.6599L9.59154 50.3496L10.3044 46.1211L6.99889 48.8527L2.75216 48.1179L5.51194 51.4282L4.79905 55.6567L8.10459 52.9251L12.3513 53.6599Z" fill="#1E1E1E"/>
</g>
<g style="mix-blend-mode:color-burn">
<path d="M350.574 59.9143L344.055 56.1224L342.696 48.7421L338.895 55.2126L331.472 56.546L337.991 60.3379L339.35 67.7182L343.151 61.2477L350.574 59.9143Z" fill="#1E1E1E"/>
</g>
<g style="mix-blend-mode:overlay">
<path d="M315.671 21.0405L319.422 27.5843L316.908 34.6551L323.435 30.9519L330.531 33.5089L326.78 26.9651L329.294 19.8943L322.767 23.5975L315.671 21.0405Z" fill="#1E1E1E"/>
</g>
</g>
</svg>
