<svg width="420" height="104" viewBox="0 0 420 104" fill="none" xmlns="http://www.w3.org/2000/svg">
<g opacity="0.5">
<g style="mix-blend-mode:overlay">
<path d="M172.145 6.88195L180.421 13.7814L190.992 11.9992L184.163 20.263L186 30.8799L177.724 23.9804L167.153 25.7626L173.982 17.4988L172.145 6.88195Z" fill="#1E1E1E"/>
</g>
<g style="mix-blend-mode:color-burn">
<path d="M8.84697 37.1324L18.9835 40.7852L28.3076 35.4949L24.7168 45.5961L30.0744 54.9443L19.9379 51.2914L10.6137 56.5817L14.2045 46.4806L8.84697 37.1324Z" fill="#1E1E1E"/>
</g>
<g style="mix-blend-mode:overlay">
<path d="M267.225 37.9014L266.463 33.6595L262.765 31.4875L266.983 30.7112L269.149 26.9857L269.911 31.2276L273.609 33.3995L269.392 34.1759L267.225 37.9014Z" fill="#1E1E1E"/>
</g>
<g style="mix-blend-mode:overlay">
<path d="M274.332 40.7537L278.579 41.4886L281.884 38.7569L281.171 42.9854L283.931 46.2958L279.684 45.5609L276.379 48.2925L277.092 44.064L274.332 40.7537Z" fill="#1E1E1E"/>
</g>
<g style="mix-blend-mode:color-burn">
<path d="M59.6018 87.5248L61.7449 83.7855L60.3085 79.7451L64.0382 81.8612L68.0928 80.4001L65.9498 84.1393L67.3861 88.1798L63.6564 86.0637L59.6018 87.5248Z" fill="#1E1E1E"/>
</g>
<g style="mix-blend-mode:color-burn">
<path d="M70.6424 89.5909L72.8093 93.3164L77.0266 94.0928L73.3291 96.2647L72.5672 100.507L70.4004 96.7811L66.1831 96.0048L69.8805 93.8328L70.6424 89.5909Z" fill="#1E1E1E"/>
</g>
<g style="mix-blend-mode:overlay">
<path d="M407.649 53.6599L410.408 50.3496L409.696 46.1211L413.001 48.8527L417.248 48.1179L414.488 51.4282L415.201 55.6567L411.895 52.9251L407.649 53.6599Z" fill="#1E1E1E"/>
</g>
<g style="mix-blend-mode:color-burn">
<path d="M69.4256 59.9143L75.9454 56.1224L77.3039 48.7421L81.1048 55.2126L88.5282 56.546L82.0085 60.3379L80.6499 67.7182L76.8491 61.2477L69.4256 59.9143Z" fill="#1E1E1E"/>
</g>
<g style="mix-blend-mode:overlay">
<path d="M104.329 21.0405L100.578 27.5843L103.092 34.6551L96.565 30.9519L89.4694 33.5089L93.2197 26.9651L90.7062 19.8943L97.2331 23.5975L104.329 21.0405Z" fill="#1E1E1E"/>
</g>
</g>
</svg>
